# xmcd
#
# Track frame offsets: 
#        150
#        15149
#        28481
#        45585
#        64734
#        72845
#        84306
#        96363
#        108536
#        121225
#        136461
#        150708
#        164635
#        179289
#        192986
#        206670
#        224269
#        241189
#        256641
#        272770
#
# Disc length: 3808 seconds
#
# Revision: 0
# Processed by: cddbd v1.5.2PL0 Copyright (c) Steve Scherf et al.
# Submitted via: ExactAudioCopy v0.95b3
#
DISCID=190ede14
DTITLE=Billie Holiday  - Volume 12 1942-1944 Complete Edition
DYEAR=1900
DGENRE=
TTITLE0=Trav'lin' Light
TTITLE1=Trav'lin' Light
TTITLE2=Do Nothin' Till You Hear From Me
TTITLE3=I Love My Man (Billie's Blues)
TTITLE4=I'll Get By
TTITLE5=How Am I To Know?
TTITLE6=How Am I To Know?
TTITLE7=How Am I To Know?
TTITLE8=How Am I To Know?
TTITLE9=My Old Flame
TTITLE10=My Old Flame
TTITLE11=My Old Flame
TTITLE12=My Old Flame
TTITLE13=I'll Get By
TTITLE14=I'll Get By
TTITLE15=I Cover The Waterfront
TTITLE16=I Cover The Waterfront
TTITLE17=I Cover The Waterfront
TTITLE18=I Cover The Waterfront
TTITLE19=You Go My Head
EXTD=
EXTT0=
EXTT1=
EXTT2=
EXTT3=
EXTT4=
EXTT5=
EXTT6=
EXTT7=
EXTT8=
EXTT9=
EXTT10=
EXTT11=
EXTT12=
EXTT13=
EXTT14=
EXTT15=
EXTT16=
EXTT17=
EXTT18=
EXTT19=
PLAYORDER=
